<svg width="30" height="33" viewBox="0 0 30 33" fill="none" xmlns="http://www.w3.org/2000/svg">
<path fill-rule="evenodd" clip-rule="evenodd" d="M3.61696 5.58908L3.61426 5.59445C2.6148 5.59714 1.71258 6.00001 1.05888 6.64998C0.410587 7.29726 0.00540208 8.19157 0.00540208 9.17997H0V9.18531V29.4038V29.4065H0.00540208C0.00810317 30.3948 0.413288 31.2945 1.06699 31.9472C1.71799 32.5918 2.6175 32.9947 3.61156 32.9947V33H3.61696H19.6056H19.6083V32.9947C20.6051 32.992 21.51 32.5918 22.1637 31.9391C22.812 31.2918 23.2172 30.3975 23.2199 29.4091C23.2199 22.4369 23.2199 16.1576 23.2199 9.18531V9.18261H23.2145C23.2118 8.19157 22.8039 7.29186 22.1502 6.64188C21.4992 5.99732 20.6024 5.59445 19.6056 5.59177V5.5864H19.6002C14.2734 5.58908 8.9438 5.58908 3.61696 5.58908ZM29.9946 20.2453L30 3.59624V3.59356H29.9946C29.9919 2.60251 29.584 1.70278 28.933 1.05282C28.282 0.408237 27.3825 0.00537153 26.3885 0.00268577V0H26.3831H10.3944C8.31711 0 7.99026 2.67503 10.3917 2.72874H26.3804H26.3858V2.72336C26.6234 2.72336 26.8396 2.82274 26.9989 2.98389C27.1583 3.13966 27.2582 3.3599 27.2582 3.59356H27.2528V3.59624V4.44763C27.2528 9.71444 27.2528 14.9785 27.2528 20.2426C27.2528 22.461 29.9946 22.5846 29.9946 20.2453ZM2.74176 29.4065V9.18531V9.17997H2.73636C2.73636 8.94631 2.8363 8.72874 2.99838 8.57026C3.15775 8.41449 3.37655 8.31242 3.61426 8.31242V8.31782H3.61696H19.6056H19.611V8.31242C19.8487 8.31242 20.0648 8.41449 20.2242 8.57296C20.3836 8.72873 20.4835 8.94895 20.4835 9.18261H20.4781V9.18531V29.4038V29.4091H20.4835C20.4835 29.6455 20.3809 29.8604 20.2215 30.0188C20.0621 30.1773 19.8433 30.2767 19.6083 30.2767V30.2713H19.6056H3.61696H3.61156V30.2767C3.37655 30.2767 3.15775 30.1746 2.99838 30.0161C2.839 29.8604 2.73906 29.6401 2.73906 29.4065H2.74176Z" fill="white"/>
</svg>
