<svg width="168" height="373" viewBox="0 0 168 373" fill="none" xmlns="http://www.w3.org/2000/svg">
<path d="M123.708 163.593L71.9609 157.223L74.7963 111.925H123.708V163.593Z" fill="#FFB6B6"/>
<path d="M130.072 46.9041L79.5477 47.5347C78.5994 47.5336 77.6903 47.1569 77.0197 46.4874C76.3492 45.8179 75.972 44.9101 75.9708 43.9632V27.295C75.9708 20.2431 78.7765 13.4801 83.7705 8.49363C88.7646 3.5072 95.5379 0.705841 102.601 0.705841C109.663 0.705841 116.437 3.5072 121.431 8.49363C126.425 13.4801 129.23 20.2431 129.23 27.295L133.649 43.3326C133.648 44.2795 133.271 45.1872 132.601 45.8568C131.93 46.5263 131.021 46.9029 130.072 46.9041H130.072Z" fill="#2F2E41"/>
<path d="M154.807 195.105C153.967 194.345 153.303 193.41 152.863 192.367C152.423 191.323 152.218 190.196 152.262 189.064C152.305 187.933 152.597 186.825 153.116 185.818C153.635 184.811 154.368 183.93 155.265 183.237L146.475 157.152L160.324 160.806L166.55 185.017C167.622 186.598 168.075 188.518 167.822 190.411C167.569 192.303 166.629 194.038 165.179 195.283C163.729 196.528 161.871 197.198 159.959 197.166C158.047 197.133 156.213 196.399 154.807 195.105V195.105Z" fill="#FFB6B6"/>
<path d="M94.9008 362.902L84.5302 361.222L86.0854 320.484L101.391 322.961L94.9008 362.902Z" fill="#FFB6B6"/>
<path d="M146.586 341.304L137.207 346.029L112.362 310.031L126.206 303.058L146.586 341.304Z" fill="#FFB6B6"/>
<path d="M102.38 47.3617C112.565 47.3617 120.822 39.1177 120.822 28.9481C120.822 18.7786 112.565 10.5345 102.38 10.5345C92.1951 10.5345 83.9385 18.7786 83.9385 28.9481C83.9385 39.1177 92.1951 47.3617 102.38 47.3617Z" fill="#FFB8B8"/>
<path d="M116.982 328.215L73.7918 218.252C58.3344 176.093 72.1451 147.036 72.2869 146.748L72.3577 146.607L72.5052 146.553C74.2789 153.445 114.492 152.976 123.708 142.359C129.087 146.871 136.245 157.493 137.779 170.186C139.382 183.804 138.166 197.605 134.208 210.734L117.195 268.319L138.244 315.663L116.982 328.215Z" fill="#2F2E41"/>
<path d="M96.1549 260.007L80.5599 338.964L101.33 342.874L114.397 274.53L96.1549 260.007Z" fill="#2F2E41"/>
<path d="M73.3786 125.372C76.701 126.259 109.544 139.771 125.125 126.08L137.353 65.8028L122.704 61.1894L117.592 54.9825C117.038 54.3094 116.34 53.7694 115.549 53.4028C114.757 53.0362 113.894 52.8522 113.021 52.8647L94.8489 53.1073C94.045 53.119 93.2523 53.2965 92.5204 53.6287C91.7884 53.9608 91.1332 54.4405 90.5957 55.0375L84.7746 61.5191L71.6261 64.5745L73.3786 125.372Z" fill="#00BC58"/>
<path d="M131.777 70.5045L135.758 65.2112C135.758 65.2112 143.052 67.1249 146.758 77.5611C150.464 87.9973 165.648 171.379 165.648 171.379L149.297 178.959L127.154 105.268L131.777 70.5045Z" fill="#00BC58"/>
<path d="M0.749094 169.803C0.903584 168.681 1.30252 167.607 1.91778 166.656C2.53304 165.705 3.34966 164.9 4.31014 164.298C5.27062 163.696 6.35158 163.312 7.47691 163.172C8.60224 163.033 9.74456 163.141 10.8234 163.49L27.4427 141.532L32.2289 155.012L15.7124 173.797C15.0078 175.571 13.6752 177.025 11.9678 177.882C10.2603 178.74 8.29694 178.941 6.45053 178.448C4.60411 177.955 3.00329 176.803 1.95209 175.209C0.900885 173.615 0.472544 171.691 0.748401 169.803H0.749094Z" fill="#FFB6B6"/>
<path d="M77.4678 69.3362L71.961 64.5035C71.961 64.5035 66.1927 65.9565 62.4868 76.3927C58.7809 86.829 11.4786 156.797 11.4786 156.797L27.8299 164.377L82.0917 104.097L77.4678 69.3362Z" fill="#00BC58"/>
<path d="M121.597 27.7334H95.8211C95.3368 27.7329 94.8693 27.5561 94.5063 27.2361C94.1432 26.9161 93.9096 26.4749 93.849 25.9951L93.5151 23.3296C93.4827 23.0736 93.3678 22.835 93.1877 22.6498C93.0076 22.4646 92.7721 22.3428 92.5167 22.3029C92.2613 22.263 91.9998 22.307 91.7717 22.4283C91.5435 22.5497 91.361 22.7418 91.2517 22.9758L89.5611 26.5883C89.4004 26.9297 89.1458 27.2186 88.8271 27.4212C88.5083 27.6238 88.1385 27.7318 87.7606 27.7327H83.8456C83.3192 27.7335 82.814 27.5255 82.4412 27.1544C82.0685 26.7833 81.8586 26.2795 81.8578 25.7539C81.8577 25.6889 81.8608 25.6239 81.8671 25.5591L83.411 9.45786C83.444 9.11358 83.5658 8.78372 83.7646 8.5005C83.9634 8.21728 84.2323 7.99039 84.5452 7.84199C96.3499 2.33971 108.321 2.34679 120.126 7.86322C120.425 8.00381 120.685 8.21671 120.881 8.48265C121.077 8.74859 121.204 9.0592 121.25 9.38637L123.563 25.4664C123.604 25.7479 123.583 26.0348 123.503 26.3077C123.423 26.5806 123.285 26.833 123.098 27.0479C122.911 27.2628 122.681 27.435 122.422 27.5529C122.162 27.6708 121.881 27.7317 121.596 27.7313L121.597 27.7334Z" fill="#2F2E41"/>
<path d="M100.226 372.388H93.4801L92.276 366.028L89.192 372.388H71.3C70.4424 372.388 69.6072 372.114 68.9163 371.607C68.2255 371.099 67.7152 370.384 67.46 369.567C67.2048 368.749 67.2179 367.872 67.4976 367.062C67.7773 366.253 68.3088 365.554 69.0146 365.067L83.3026 355.214V348.785L98.3312 349.681L100.226 372.388Z" fill="#2F2E41"/>
<path d="M160.003 356.623L154.336 360.277L149.869 355.587L150.733 362.6L135.703 372.29C134.982 372.755 134.132 372.978 133.276 372.925C132.42 372.873 131.603 372.549 130.944 372.001C130.286 371.452 129.82 370.708 129.615 369.876C129.41 369.045 129.477 368.169 129.806 367.378L136.456 351.362L132.963 345.962L146.075 338.574L160.003 356.623Z" fill="#2F2E41"/>
</svg>
