<svg width="273" height="499" viewBox="0 0 273 499" fill="none" xmlns="http://www.w3.org/2000/svg">
<path d="M2.15161 148.792C2.87288 150.168 3.88757 151.37 5.12414 152.313C6.36072 153.255 7.78916 153.916 9.3088 154.247C10.8284 154.578 12.4023 154.573 13.9196 154.231C15.4369 153.889 16.8607 153.219 18.0907 152.268L49.7566 172.906L49.6602 153.279L19.6045 136.69C17.8681 134.732 15.4729 133.478 12.8728 133.166C10.2727 132.854 7.64846 133.506 5.49717 134.997C3.34589 136.489 1.81709 138.717 1.20049 141.259C0.5839 143.802 0.922342 146.482 2.15168 148.792L2.15161 148.792Z" fill="#FFB6B6"/>
<path d="M161.057 484.336H147.472L141.008 431.991L161.059 431.992L161.057 484.336Z" fill="#FFB6B6"/>
<path d="M164.522 497.491L120.717 497.49V496.936C120.717 492.419 122.514 488.087 125.711 484.893C128.909 481.699 133.245 479.905 137.767 479.905H137.768L164.523 479.906L164.522 497.491Z" fill="#2F2E41"/>
<path d="M93.8459 484.336H80.2609L73.7984 431.991L93.8482 431.992L93.8459 484.336Z" fill="#FFB6B6"/>
<path d="M97.3109 497.491L53.5061 497.49V496.936C53.5064 492.419 55.3029 488.087 58.5003 484.893C61.6977 481.699 66.0343 479.905 70.5562 479.905H70.5572L97.3117 479.906L97.3109 497.491Z" fill="#2F2E41"/>
<path d="M78.1653 217.227L64.628 352.164L71.3967 468.637H97.5666L102.857 359.076L123.438 299.167L135.418 391.49V466.66L165.19 468.036L175.071 283.987C175.071 283.987 178.427 232.508 171.73 226.201C165.033 219.893 78.1653 217.227 78.1653 217.227Z" fill="#2F2E41"/>
<path d="M193.587 95.4691L166.228 85.1805L161.412 75.4272L127.016 75.9262L119.224 83.747L92.4392 92.5114L75.4093 222.844C75.4093 222.844 127.829 260.268 174.36 234.411L193.587 95.4691Z" fill="#3F3D56"/>
<path d="M26.1329 161.389L71.1522 187.829L108.665 137.705V106.265C108.667 103.359 107.808 100.518 106.194 98.1C104.705 95.8661 102.634 94.0805 100.205 92.936C97.7751 91.7914 95.0787 91.3314 92.4064 91.6054C89.7341 91.8794 87.1875 92.8771 85.0413 94.4908C82.895 96.1046 81.2305 98.2731 80.2275 100.762L60.7461 149.116L33.1143 140.96L26.1329 161.389Z" fill="#3F3D56"/>
<path d="M156.955 231.9C157.229 230.37 157.835 228.919 158.731 227.649C159.627 226.379 160.791 225.321 162.141 224.549C163.49 223.776 164.993 223.309 166.543 223.18C168.093 223.051 169.653 223.263 171.112 223.801L195.108 194.613L200.919 213.362L177.241 238.205C176.174 240.593 174.266 242.508 171.88 243.586C169.494 244.664 166.795 244.83 164.295 244.053C161.794 243.276 159.666 241.61 158.313 239.37C156.96 237.13 156.477 234.472 156.955 231.9L156.955 231.9Z" fill="#FFB6B6"/>
<path d="M192.747 227.304L177.583 212.155L202.626 167.331L166.305 126.665L168.402 110.258C168.884 106.481 170.399 102.91 172.779 99.9358C174.849 97.3498 177.508 95.2964 180.535 93.9475C183.562 92.5986 186.868 91.9932 190.178 92.1822C193.487 92.3711 196.702 93.3488 199.556 95.0335C202.409 96.7181 204.817 99.0608 206.578 101.866L234.977 164.943L234.835 165.153L192.747 227.304Z" fill="#3F3D56"/>
<path d="M169.4 41.5662C168.351 49.2167 164.303 56.1379 158.148 60.8091C151.993 65.4803 144.233 67.5192 136.573 66.4778C128.913 65.4365 121.981 61.4 117.299 55.2555C112.617 49.1109 110.569 41.361 111.605 33.7086L111.661 33.2951C112.869 25.7456 117 18.9732 123.162 14.4387C129.324 9.90423 137.023 7.97114 144.599 9.05641C152.175 10.1417 159.021 14.1583 163.658 20.2399C168.296 26.3215 170.355 33.9806 169.391 41.565L169.4 41.5662Z" fill="#FFB6B6"/>
<path d="M161.977 56.5718C163.475 53.5328 165.014 50.27 164.593 46.9089C164.172 43.5477 160.872 40.335 157.632 41.3339C155.694 41.9312 154.23 43.8425 152.205 43.9403C149.418 44.0749 147.82 40.8889 146.953 38.24L143.42 27.4516C140.027 30.0927 136.093 31.9531 131.898 32.9001C127.703 33.847 123.35 33.8572 119.151 32.93C115.871 32.1808 112.557 30.7202 110.633 27.9629C108.709 25.2056 108.72 20.9285 111.359 18.8435C112.653 17.8211 114.376 17.4327 115.612 16.3418C116.379 15.6651 116.908 14.7596 117.12 13.7594C117.332 12.7592 117.216 11.7175 116.789 10.7883C116.362 9.85907 115.647 9.09182 114.75 8.60006C113.853 8.10831 112.821 7.91818 111.807 8.0578L120.702 6.94723L118.052 2.159C119.059 2.8439 120.199 3.31113 121.397 3.53079C122.596 3.75044 123.827 3.71769 125.012 3.4346C127.405 3.00415 129.659 2.01983 132.001 1.36341C137.675 -0.0841612 143.668 0.358219 149.068 2.62339C154.468 4.88857 158.981 8.8527 161.919 13.9135C164.108 13.1833 166.468 13.1348 168.685 13.7743C170.902 14.4138 172.872 15.7112 174.335 17.4945C176.716 20.5135 177.363 24.5424 177.456 28.3848C177.629 35.961 175.975 43.4676 172.634 50.2713C171.676 52.4324 170.299 54.3829 168.584 56.0107C167.72 56.8177 166.69 57.4262 165.566 57.7934C164.442 58.1607 163.251 58.2777 162.077 58.1365" fill="#2F2E41"/>
</svg>
