<svg width="544" height="645" viewBox="0 0 544 645" fill="none" xmlns="http://www.w3.org/2000/svg">
<path d="M416.943 613.644H399.777L391.608 547.435H416.943V613.644Z" fill="#9E616A"/>
<path d="M426.003 643.385H413.693L411.495 631.763L405.868 643.385H373.219C371.654 643.385 370.13 642.885 368.869 641.958C367.609 641.03 366.678 639.724 366.212 638.23C365.746 636.736 365.77 635.132 366.281 633.653C366.791 632.173 367.761 630.896 369.049 630.006L395.121 612V600.25L422.545 601.887L426.003 643.385Z" fill="#2F2E41"/>
<path d="M518.923 591.981L505.148 602.224L459.085 553.969L479.415 538.851L518.923 591.981Z" fill="#9E616A"/>
<path d="M543.94 610.441L534.062 617.786L525.363 609.771L527.783 622.456L501.583 641.938C500.328 642.872 498.806 643.38 497.241 643.388C495.676 643.396 494.15 642.903 492.884 641.982C491.619 641.061 490.681 639.76 490.208 638.268C489.735 636.776 489.751 635.172 490.254 633.69L500.431 603.683L493.42 594.255L516.403 579.204L543.94 610.441Z" fill="#2F2E41"/>
<path d="M436.927 272.04C436.927 272.04 469.496 300.178 454.469 380.392L436.124 458.989L495.953 558.245L476.877 581.452L399.097 474.019L370.912 407.905L363.003 290.236L436.927 272.04Z" fill="#2F2E41"/>
<path d="M386.447 426.746L384.488 457.084L390.483 586.365L418.692 581.452L424.083 489.406L386.447 426.746Z" fill="#2F2E41"/>
<path d="M24.445 629.211L39.796 629.21L47.098 570.001L24.443 570.002L24.445 629.211Z" fill="#FFB6B6"/>
<path d="M20.5296 624.199L24.8504 624.199L41.7192 617.339L50.7604 624.198H50.7616C55.871 624.198 60.771 626.228 64.3839 629.841C67.9968 633.454 70.0267 638.354 70.0271 643.463V644.089L20.5305 644.091L20.5296 624.199Z" fill="#2F2E41"/>
<path d="M83.932 619.538L98.905 622.918L119.071 566.772L96.972 561.782L83.932 619.538Z" fill="#FFB6B6"/>
<path d="M81.2162 613.786L85.4309 614.738L103.397 611.762L110.705 620.444L110.706 620.445C115.69 621.57 120.022 624.63 122.751 628.95C125.479 633.269 126.38 638.496 125.255 643.48L125.117 644.091L76.8354 633.19L81.2162 613.786Z" fill="#2F2E41"/>
<path d="M5.00324 267.236C-2.19384 288.942 -1.43294 312.504 6.73316 337.792L10.224 480.17C10.224 480.17 5.02292 573.539 21.8059 606.395H46.1459L58.1971 471.643L59.7104 381.198L111.893 457.503L78.6563 604.192L108.613 606.87L162.547 447.679L96.0032 293.236L5.00324 267.236Z" fill="#2F2E41"/>
<path d="M288.714 236.884C295.783 238.137 303.065 236.679 309.108 232.801C309.706 232.416 310.271 233.365 309.674 233.749C303.379 237.773 295.797 239.275 288.444 237.955C287.743 237.829 288.017 236.759 288.714 236.884V236.884Z" fill="white"/>
<path d="M359.445 261.584C359.126 262.935 359.146 264.344 359.505 265.685C359.865 267.025 360.551 268.256 361.504 269.266C361.994 269.782 361.13 270.471 360.643 269.958C359.596 268.838 358.839 267.478 358.439 265.997C358.039 264.517 358.007 262.96 358.347 261.465C358.368 261.321 358.442 261.191 358.555 261.1C358.668 261.009 358.811 260.964 358.956 260.975C359.101 260.992 359.234 261.065 359.326 261.179C359.417 261.293 359.46 261.438 359.445 261.584V261.584Z" fill="white"/>
<path d="M243.382 174.13C242.356 175.48 241.046 176.588 239.545 177.377C238.044 178.166 236.388 178.616 234.695 178.696C233.001 178.776 231.31 178.484 229.741 177.839C228.173 177.195 226.764 176.215 225.616 174.967L187.815 191.407L191.497 170.306L226.829 157.929C229.052 156.138 231.855 155.225 234.707 155.363C237.559 155.501 240.261 156.68 242.301 158.677C244.342 160.674 245.579 163.35 245.778 166.198C245.977 169.046 245.125 171.868 243.382 174.13V174.13Z" fill="#FFB8B8"/>
<path d="M218.157 180.718L130.36 219.827L130.171 219.759L30.1044 184.1C22.6507 180.205 16.9681 173.607 14.2201 165.659C11.4721 157.71 11.8665 149.012 15.3227 141.345V141.345C17.2384 137.108 20.0296 133.326 23.5126 130.246C26.9955 127.166 31.0912 124.859 35.5301 123.477C39.969 122.094 44.6504 121.667 49.2661 122.224C53.8819 122.781 58.3273 124.309 62.3099 126.708L136.778 171.567L208.99 162.208L218.157 180.718Z" fill="#E6E6E6"/>
<path d="M100.344 297.796L11.8377 283.64C9.51648 282.896 7.3836 281.659 5.58552 280.014C3.78744 278.368 2.36677 276.353 1.42097 274.107C0.475175 271.86 0.0266656 269.436 0.106273 267C0.18588 264.564 0.791714 262.174 1.88215 259.994L5.89582 251.965L4.33674 167.619C4.14883 156.647 6.85364 145.82 12.1791 136.226C17.5045 126.631 25.2627 118.609 34.6732 112.965L43.304 107.804L47.6658 96.7277L87.8861 97.7087L88.0032 112.236L102.407 135.204L102.407 135.299L101.503 260.313L97.533 273.215L103.535 288.22L100.344 297.796Z" fill="#E6E6E6"/>
<path d="M71.4591 82.9541C91.6419 82.9541 108.003 66.5927 108.003 46.41C108.003 26.2272 91.6419 9.86584 71.4591 9.86584C51.2764 9.86584 34.915 26.2272 34.915 46.41C34.915 66.5927 51.2764 82.9541 71.4591 82.9541Z" fill="#FFB8B8"/>
<path d="M33.4055 54.3765C32.3155 49.7846 32.8159 43.323 33.4319 38.6995C35.0467 26.5782 41.7783 15.0547 52.0052 8.229C53.9444 6.75617 56.2486 5.84045 58.6698 5.58054C61.0892 5.47954 63.7117 6.77472 64.4544 9.07954C65.0639 7.55834 65.9787 6.17821 67.1423 5.02431C68.3059 3.87042 69.6937 2.96724 71.2199 2.37054C74.2858 1.19589 77.5833 0.75167 80.8507 1.07308C87.184 1.59512 93.2577 3.82204 98.4275 7.51751C103.597 11.213 107.67 16.2391 110.214 22.0626C111.19 24.3814 113.916 15.8163 115.153 18.0073C116.289 20.2846 118.272 22.0267 120.677 22.8607C123.1 23.5369 124.084 33.521 125.038 31.1929C125.778 32.9135 126.07 34.7933 125.888 36.6573C125.706 38.5213 125.055 40.3089 123.996 41.8536C122.937 43.3982 121.504 44.6498 119.831 45.4916C118.158 46.3334 116.299 46.7382 114.427 46.6682C111.961 46.5759 109.603 45.6687 107.165 45.2782C98.4503 43.8817 89.2054 50.2013 87.3423 58.8287C86.6753 56.3338 85.6097 53.9629 84.1867 51.8077C83.4643 50.7358 82.4965 49.8519 81.3636 49.2294C80.2307 48.607 78.9656 48.264 77.6735 48.2291C75.1939 48.3219 73.0144 49.943 71.4055 51.832C69.7967 53.7211 68.5884 55.925 66.9677 57.8039C62.2122 63.3169 55.7803 76.1736 49.0032 75.2359C43.655 74.496 34.8937 60.646 33.4055 54.3765Z" fill="#2F2E41"/>
<path d="M292.364 215.541C292.62 213.875 292.277 212.172 291.398 210.734C290.518 209.296 289.157 208.217 287.557 207.687L189.144 174.91C188.2 174.594 187.201 174.479 186.211 174.573L161.544 176.906L147.39 178.248L121.271 180.717C119.694 180.867 118.212 181.537 117.057 182.621C115.902 183.705 115.139 185.142 114.888 186.706L101.627 269.544C101.376 271.16 101.683 272.813 102.498 274.23C103.314 275.647 104.588 276.744 106.111 277.34L205.551 315.724C206.018 315.905 206.503 316.036 206.998 316.113C207.718 316.229 208.452 316.235 209.173 316.129L273.429 306.606C274.944 306.386 276.349 305.684 277.434 304.603C278.519 303.523 279.226 302.121 279.452 300.606L292.364 215.541Z" fill="white"/>
<path d="M108.365 271.503L207.805 309.886C207.95 309.943 208.108 309.961 208.262 309.939L272.509 300.417C272.7 300.391 272.876 300.303 273.013 300.168C273.149 300.032 273.237 299.856 273.264 299.665L286.184 214.599C286.213 214.391 286.17 214.179 286.06 214C285.951 213.821 285.783 213.686 285.585 213.617L284.923 213.393L187.165 180.847C187.121 180.831 187.075 180.82 187.028 180.814C186.952 180.8 186.875 180.796 186.798 180.802L126.634 186.495L121.859 186.943C121.663 186.964 121.48 187.049 121.336 187.184C121.193 187.319 121.097 187.497 121.065 187.691L107.806 270.525C107.773 270.728 107.811 270.935 107.913 271.113C108.015 271.291 108.174 271.429 108.365 271.503V271.503Z" fill="#00BC58"/>
<path d="M126.634 186.495L186.798 180.802C186.875 180.796 186.952 180.8 187.028 180.814C187.075 180.82 187.121 180.831 187.165 180.847L284.923 213.393L259.136 216.123L249.486 217.139L222.025 220.041C221.945 220.045 221.865 220.044 221.785 220.038C221.736 220.023 221.687 220.008 221.628 219.993L126.634 186.495Z" fill="#2F2E41"/>
<path d="M106.109 277.345L205.549 315.727C206.017 315.908 206.504 316.035 207 316.107C207.72 316.226 208.454 316.235 209.177 316.134L273.424 306.612C274.94 306.391 276.345 305.688 277.431 304.607C278.517 303.526 279.225 302.124 279.452 300.608L292.362 215.54C292.553 214.286 292.409 213.004 291.944 211.824C291.879 211.667 291.813 211.51 291.737 211.362C291.225 210.284 290.446 209.356 289.473 208.664C288.888 208.244 288.242 207.915 287.557 207.688L287.441 207.647L189.149 174.909C188.748 174.781 188.337 174.681 187.922 174.611C187.354 174.53 186.778 174.519 186.207 174.578L161.544 176.902L147.392 178.252L121.269 180.719C120.2 180.819 119.168 181.16 118.25 181.716C118.179 181.751 118.111 181.791 118.048 181.838C118.002 181.867 117.959 181.9 117.918 181.936C117.116 182.483 116.435 183.187 115.914 184.006C115.394 184.825 115.046 185.741 114.891 186.699L101.621 269.543C101.37 271.16 101.678 272.814 102.494 274.233C103.31 275.651 104.585 276.749 106.109 277.345V277.345ZM116.651 186.988C116.813 185.995 117.253 185.069 117.921 184.317C118.124 184.075 118.35 183.854 118.597 183.658C119.272 183.113 120.069 182.741 120.921 182.574C121.089 182.539 121.259 182.515 121.43 182.502L165.414 178.347L186.379 176.352C186.521 176.335 186.652 176.338 186.783 176.33C187.1 176.324 187.418 176.347 187.731 176.401C188.019 176.438 188.302 176.506 188.575 176.602L286.984 209.381C287.062 209.408 287.129 209.435 287.207 209.462C288.102 209.795 288.888 210.367 289.48 211.116C289.948 211.689 290.29 212.355 290.483 213.069C290.676 213.784 290.716 214.531 290.601 215.262L277.68 300.338C277.511 301.473 276.981 302.523 276.169 303.334C275.357 304.144 274.306 304.672 273.172 304.84L208.914 314.361C207.995 314.493 207.058 314.386 206.192 314.051L106.751 275.678C105.611 275.229 104.658 274.406 104.047 273.344C103.437 272.282 103.206 271.043 103.391 269.832L116.651 186.988Z" fill="#3F3D56"/>
<path d="M117.704 182.387C117.756 182.237 117.849 182.103 117.972 182.001C118.013 181.969 118.056 181.939 118.101 181.913C118.142 181.897 118.185 181.871 118.227 181.855C118.426 181.774 118.649 181.771 118.851 181.844L120.921 182.574L222.036 218.244L245.701 215.743L258.944 214.346L286.974 211.379L289.48 211.116L289.967 211.062C290.177 211.043 290.388 211.098 290.561 211.217C290.735 211.337 290.862 211.513 290.92 211.716C290.933 211.763 290.942 211.811 290.946 211.859C290.967 212.052 290.924 212.246 290.825 212.412C290.726 212.578 290.575 212.708 290.396 212.781C290.317 212.814 290.233 212.836 290.148 212.848L286.739 213.205L259.136 216.123L249.486 217.139L222.025 220.041C221.945 220.045 221.865 220.044 221.785 220.038C221.736 220.023 221.687 220.008 221.628 219.993L118.597 183.658L118.247 183.534C118.167 183.508 118.093 183.467 118.028 183.413C117.872 183.298 117.756 183.137 117.698 182.953C117.64 182.769 117.642 182.571 117.704 182.387Z" fill="#3F3D56"/>
<path d="M207.271 316.368C207.038 316.33 206.829 316.203 206.69 316.012C206.551 315.822 206.493 315.585 206.528 315.352L221.045 219.018C221.08 218.783 221.207 218.573 221.398 218.432C221.589 218.291 221.828 218.232 222.062 218.267L222.07 218.268C222.303 218.306 222.511 218.433 222.65 218.623C222.789 218.814 222.848 219.051 222.813 219.284L208.296 315.618C208.26 315.853 208.133 316.063 207.943 316.204C207.752 316.345 207.513 316.404 207.279 316.369L207.271 316.368Z" fill="#3F3D56"/>
<path d="M244.068 310.256L234.413 311.275L245.706 215.741C245.706 215.741 258.601 213.406 258.946 214.342C259.158 214.901 244.16 309.644 244.068 310.256Z" fill="#3F3D56"/>
<path d="M118.25 183.533L117.99 227.1L195.116 256.488L222.813 219.284L118.25 183.533Z" fill="#3F3D56"/>
<path d="M289.483 211.118C288.838 210.307 287.97 209.704 286.986 209.381L188.58 176.603C188.304 176.51 188.02 176.441 187.732 176.397C187.418 176.343 187.1 176.319 186.782 176.326L186.941 175.328L187.926 174.615L211.295 157.696L289.335 181.613L289.471 208.665L289.483 211.118Z" fill="#3F3D56"/>
<path d="M122.181 253.473C122.291 253.483 122.401 253.506 122.507 253.541L152.7 263.458C153.078 263.582 153.392 263.851 153.571 264.206C153.751 264.561 153.782 264.973 153.658 265.351C153.534 265.729 153.265 266.042 152.91 266.222C152.555 266.401 152.143 266.433 151.765 266.309L121.571 256.392C121.221 256.277 120.925 256.036 120.74 255.717C120.556 255.397 120.495 255.021 120.571 254.66C120.646 254.298 120.852 253.978 121.149 253.759C121.446 253.54 121.813 253.438 122.181 253.473H122.181Z" fill="white"/>
<path d="M207.692 271.121C206.137 271.797 204.452 272.124 202.757 272.078C201.062 272.032 199.397 271.615 197.881 270.857C196.364 270.098 195.032 269.016 193.979 267.687C192.926 266.358 192.177 264.814 191.785 263.164L150.773 259.021L164.303 242.415L201.174 248.895C203.989 248.42 206.881 248.995 209.301 250.509C211.721 252.024 213.502 254.374 214.305 257.113C215.109 259.853 214.879 262.792 213.66 265.374C212.441 267.956 210.318 270.001 207.692 271.121V271.121Z" fill="#FFB8B8"/>
<path d="M182.467 264.534L86.7581 255.715L86.6268 255.565L16.7762 175.528C12.1793 168.485 10.4485 159.952 11.9382 151.674C13.4279 143.397 18.0254 136.003 24.7894 131.005V131.005C28.5319 128.246 32.8162 126.312 37.3603 125.328C41.9044 124.345 46.6052 124.335 51.1533 125.3C55.7014 126.264 59.9936 128.181 63.7476 130.924C67.5015 133.667 70.632 137.174 72.9329 141.214L115.955 216.758L183.521 243.905L182.467 264.534Z" fill="#E6E6E6"/>
<path d="M422.69 110.617C420.313 93.1828 417.332 74.465 405.036 61.8798C401.134 57.8866 396.465 54.7247 391.308 52.585C386.151 50.4453 380.615 49.372 375.032 49.4298C369.449 49.4875 363.936 50.6752 358.825 52.9212C353.714 55.1672 349.11 58.425 345.292 62.4982C336.341 72.0469 332.389 85.4549 332.027 98.538C331.665 111.621 334.579 124.559 337.811 137.241C354.917 137.583 371.897 134.241 387.597 127.442C391.523 125.738 395.386 123.812 399.534 122.756C403.682 121.7 406.639 124.357 410.497 126.209L412.615 122.154C414.349 125.38 419.717 124.424 421.665 121.321C423.612 118.219 423.185 114.246 422.69 110.617Z" fill="#2F2E41"/>
<path d="M354.884 207.925L285.008 209.42C283.935 207.565 282.346 206.062 280.434 205.093C278.522 204.125 276.37 203.733 274.24 203.966C272.11 204.198 270.093 205.045 268.435 206.402C266.777 207.76 265.549 209.57 264.901 211.613C264.254 213.655 264.213 215.842 264.786 217.907C265.358 219.973 266.518 221.827 268.125 223.244C269.732 224.662 271.716 225.582 273.837 225.893C275.957 226.203 278.122 225.891 280.068 224.994C289.335 225.52 361.84 235.811 366.165 229.179C370.556 222.448 393.99 198.693 393.99 198.693L375.977 173.049L354.884 207.925Z" fill="#9E616A"/>
<path d="M371.911 127.865C390.043 127.865 404.741 113.167 404.741 95.0353C404.741 76.9037 390.043 62.2051 371.911 62.2051C353.779 62.2051 339.081 76.9037 339.081 95.0353C339.081 113.167 353.779 127.865 371.911 127.865Z" fill="#9E616A"/>
<path d="M424.494 158.204C420.625 150.504 418.745 140.992 410.497 138.495C404.927 136.81 382.4 139.336 377.324 142.181C368.88 146.915 376.532 155.784 371.55 164.084C366.135 173.106 351.418 191.213 346.003 200.236C342.28 206.439 354.82 224.645 352.807 231.594C350.795 238.542 350.698 246.341 354.127 252.711C357.196 258.413 352.755 263.456 355.842 269.148C359.052 275.068 362.991 297.201 360.003 303.236L358.003 309.236C377.85 310.402 394.538 286.692 414.261 284.194C419.16 283.574 424.247 282.763 428.284 279.92C434.23 275.731 436.581 268.131 438.05 261.007C445.121 226.186 440.349 190.001 424.494 158.204V158.204Z" fill="#3F3D56"/>
<path d="M454.25 239.505C451.485 231.96 446.48 198.969 446.48 198.969L415.156 198.05L430.471 235.822L388.68 294.325C388.68 294.325 388.758 294.454 388.899 294.683C386.701 294.33 384.449 294.649 382.436 295.598C380.423 296.547 378.743 298.081 377.617 300C376.49 301.919 375.969 304.133 376.122 306.353C376.274 308.573 377.093 310.696 378.472 312.442C379.851 314.189 381.725 315.479 383.848 316.143C385.972 316.808 388.247 316.815 390.375 316.165C392.504 315.516 394.386 314.238 395.777 312.501C397.167 310.763 398.001 308.647 398.168 306.428C398.322 306.516 398.502 306.548 398.677 306.518C398.852 306.488 399.011 306.398 399.126 306.263C403.776 300.428 457.014 247.051 454.25 239.505Z" fill="#9E616A"/>
<path d="M457.434 218.67C454.559 206.536 451.663 194.335 446.815 182.845C441.968 171.355 435.029 160.502 425.269 152.739C422.148 150.257 418.66 148.067 414.748 147.295C410.836 146.524 406.428 147.387 403.681 150.277C399.285 154.9 400.608 162.322 402.22 168.495C406.974 186.695 411.729 204.895 416.483 223.096C430.212 221.641 443.942 220.185 457.671 218.73L457.434 218.67Z" fill="#3F3D56"/>
<path d="M412.139 99.5889C410.93 91.6469 409.667 83.6385 406.826 76.1603C403.986 68.6821 399.408 61.6778 392.84 57.4415C382.441 50.7344 368.978 52.028 357.319 55.8861C348.303 58.8698 339.502 63.4047 333.143 70.6954C326.785 77.9861 323.214 88.3892 325.579 97.922C338.016 94.9838 350.452 92.0455 362.888 89.1072L361.527 90.0692C365.61 92.1053 369.176 95.045 371.954 98.6651C374.731 102.285 376.648 106.491 377.557 110.962C378.447 115.488 378.319 120.154 377.184 124.625C376.048 129.095 373.933 133.257 370.992 136.81C379.474 133.801 387.955 130.792 396.437 127.783C401.672 125.926 407.275 123.786 410.38 119.023C413.979 113.5 413.143 106.18 412.139 99.5889Z" fill="#2F2E41"/>
</svg>
