<svg width="368" height="271" viewBox="0 0 368 271" fill="none" xmlns="http://www.w3.org/2000/svg">
<path d="M324.576 265.308C294.863 260.023 262.372 260.901 228.29 265.308C243.824 252.201 257.231 239.093 241.697 225.986C271.998 232.234 276.242 231.601 309.95 225.986C302.132 239.093 316.757 252.201 324.576 265.308Z" fill="#00BC57"/>
<path d="M317.328 259.716C292.089 255.497 264.489 256.199 235.537 259.716C248.733 249.254 260.122 238.791 246.926 228.328C272.666 233.315 276.271 232.811 304.904 228.328C298.263 238.791 310.687 249.254 317.328 259.716Z" fill="#00BC57"/>
<path d="M307.715 242.858C315.142 242.858 321.163 236.84 321.163 229.417C321.163 221.993 315.142 215.975 307.715 215.975C300.288 215.975 294.267 221.993 294.267 229.417C294.267 236.84 300.288 242.858 307.715 242.858Z" fill="#2F2E41"/>
<path d="M246.667 213.826L255.985 215.379L260.644 228.831L247.185 237.11L231.655 213.826H246.149H246.667Z" fill="#A0616A"/>
<path d="M273.068 234.523C285.076 234.523 294.81 224.793 294.81 212.792C294.81 200.79 285.076 191.061 273.068 191.061C261.06 191.061 251.326 200.79 251.326 212.792C251.326 224.793 261.06 234.523 273.068 234.523Z" fill="#A0616A"/>
<path d="M152.97 133.628C152.97 133.628 100.168 139.32 90.8501 138.285C81.5322 137.25 77.3908 136.215 77.3908 136.215C77.3908 136.215 71.1789 144.494 74.2849 148.116C76.0244 150.203 78.1293 151.956 80.4968 153.29C80.4968 153.29 86.1911 151.738 90.3325 153.29C94.4738 154.842 136.405 161.568 143.652 155.359C150.899 149.151 152.97 133.628 152.97 133.628Z" fill="#2F2E41"/>
<path d="M156.593 249.01C156.593 249.01 121.91 239.179 115.698 195.717V191.578C115.698 191.578 108.836 203.611 106.38 206.065C103.533 208.911 93.4384 234.523 93.9561 237.11C94.4737 239.697 93.9561 240.732 93.9561 240.732L78.9438 239.179V234.523C78.9438 234.523 86.9676 210.463 87.4853 204.772C88.0029 199.08 107.415 159.499 107.415 159.499C107.415 159.499 114.663 144.494 127.087 159.499C139.511 174.504 140.546 184.852 140.546 184.852L156.593 215.896L156.593 249.01Z" fill="#2F2E41"/>
<path d="M78.9438 134.663L62.3786 128.972C62.3786 128.972 46.8486 117.589 50.4723 128.972C54.0959 140.355 70.6612 165.19 75.3202 162.603C79.9792 160.016 85.5823 153.595 84.3337 152.666C83.0852 151.738 74.8025 145.011 78.9438 134.663Z" fill="#2F2E41"/>
<path d="M80.9461 231.468L67.5738 237.996C67.5738 237.996 51.4027 240.482 60.4212 245.145C69.4397 249.807 94.3184 254.78 95.5623 250.429C96.8062 246.077 96.3127 238.855 95.0045 239.047C93.6964 239.239 84.6779 240.171 80.9461 231.468Z" fill="#2F2E41"/>
<path d="M149.864 214.861C149.864 214.861 143.134 243.836 154.523 250.045C165.911 256.254 245.632 257.289 251.844 245.906C258.056 234.523 254.95 234.523 254.95 234.523L238.384 215.896L251.844 214.861C251.844 214.861 251.844 210.722 247.185 210.205C242.526 209.687 228.031 204.513 215.607 208.135C203.183 211.757 195.936 200.891 195.936 200.891L149.864 214.861Z" fill="#575A89"/>
<path d="M141.064 124.315L132.263 172.434L192.83 165.19L203.701 121.728L141.064 124.315Z" fill="#3F3D56"/>
<path d="M142.876 126.126L135.628 169.071L190.759 162.603L201.371 123.539L142.876 126.126Z" fill="white"/>
<path d="M134.334 172.951L132.263 172.434L131.228 174.503L147.793 220.553L149.351 219.958L149.864 216.931L134.334 172.951Z" fill="#B3B3B3"/>
<path d="M132.263 171.916L148.828 220.035L211.466 210.722L192.83 165.19L132.263 171.916Z" fill="#D0CDE1"/>
<path d="M140.546 170.364V172.951L186.618 167.777L186.1 165.19L140.546 170.364Z" fill="#3F3D56"/>
<path d="M141.581 175.538L148.829 195.717L195.936 190.026L187.654 170.882L141.581 175.538Z" fill="#3F3D56"/>
<path d="M200.595 203.996L199.042 199.857C199.042 199.857 187.136 179.16 180.924 183.299C174.712 187.439 193.865 207.618 193.865 207.618H200.077L200.595 203.996Z" fill="#A0616A"/>
<path d="M161.252 207.1L159.699 200.891C159.699 200.891 155.558 181.747 162.805 182.782C170.053 183.817 172.123 201.926 172.123 201.926L171.606 206.065L161.252 207.1Z" fill="#A0616A"/>
<path d="M173.676 204.513C173.676 204.513 160.217 202.443 159.699 205.548C159.182 208.652 156.593 255.219 169.535 256.771C182.477 258.324 246.667 265.05 239.937 249.01C233.208 232.971 222.855 235.04 222.855 235.04L178.853 239.697L173.676 204.513Z" fill="#575A89"/>
<path d="M214.313 210.463L200.595 200.891L191.536 207.876L202.925 220.294L214.313 210.463Z" fill="#575A89"/>
<path opacity="0.2" d="M177.559 219.777L179.629 239.438L215.348 237.369L184.288 236.851L177.559 219.777Z" fill="black"/>
<path d="M283.8 242.611C298.095 242.611 309.684 231.028 309.684 216.74C309.684 202.452 298.095 190.87 283.8 190.87C269.505 190.87 257.917 202.452 257.917 216.74C257.917 231.028 269.505 242.611 283.8 242.611Z" fill="#2F2E41"/>
<path d="M150.64 141.131L182.736 140.014L185.842 128.196L152.711 129.195L150.64 141.131Z" fill="#00BC57"/>
<path d="M142.358 147.857L191.018 146.305L191.536 144.235L142.876 145.948L142.358 147.857Z" fill="#E6E6E6"/>
<path d="M141.322 153.031L189.983 151.479L190.501 149.409L141.84 151.122L141.322 153.031Z" fill="#E6E6E6"/>
<path d="M140.805 157.17L189.465 155.618L189.983 153.548L141.322 155.26L140.805 157.17Z" fill="#E6E6E6"/>
</svg>
