<svg width="59" height="55" viewBox="0 0 59 55" fill="none" xmlns="http://www.w3.org/2000/svg">
<g clip-path="url(#clip0)">
<path d="M50.103 3.04176V18.9382C50.103 19.7786 49.4163 20.4614 48.5713 20.4614C48.2016 20.4614 47.8607 20.3325 47.5966 20.1129L42.9008 16.9422L37.7921 20.2131C37.5616 20.3612 37.2953 20.4445 37.0211 20.4544C36.747 20.4642 36.4753 20.4002 36.2347 20.2691C35.9941 20.1379 35.7937 19.9446 35.6545 19.7095C35.5154 19.4744 35.4427 19.2062 35.4442 18.9334H35.4394V3.04176H31.9439C31.6945 3.04195 31.4525 3.1261 31.2573 3.28052C31.0701 3.43332 30.9308 3.63865 30.8732 3.87741L30.8588 3.94903V47.78C31.7711 47.2261 32.7698 46.9252 33.8981 46.9157C33.9413 46.9109 33.9845 46.9109 34.0278 46.9109H54.842C55.1397 46.9109 55.4133 46.7868 55.615 46.591C55.8167 46.3904 55.9367 46.1182 55.9367 45.8222V4.13526C55.9367 3.83921 55.8119 3.56702 55.615 3.36647C55.4133 3.16591 55.1397 3.04653 54.842 3.04653H50.103V3.04176V3.04176ZM33.8981 49.9527C33.3315 49.9622 32.8274 50.1341 32.3617 50.435C31.8383 50.7788 31.3438 51.2897 30.8636 51.9535V53.4815C30.8636 54.3219 30.177 55.0048 29.332 55.0048C28.4869 55.0048 27.8003 54.3219 27.8003 53.4815V51.6908C27.6322 51.4903 27.4786 51.2993 27.3394 51.1226C26.6672 50.2869 26.4079 49.9622 25.0011 49.9622H4.15804C3.61209 49.9623 3.07149 49.8552 2.56724 49.6471C2.063 49.4389 1.60502 49.1339 1.21956 48.7493C0.439379 47.9727 0.000788677 46.92 0 45.8222L0 4.13526C0 2.99878 0.465739 1.96258 1.21956 1.21288C1.60475 0.828 2.06267 0.52269 2.56698 0.314532C3.07129 0.106374 3.61202 -0.000522491 4.15804 -1.92251e-06H26.8112C27.7763 -1.92251e-06 28.6694 0.334258 29.3752 0.892948C30.1055 0.315431 31.0109 0.000711165 31.9439 -1.92251e-06H54.842C55.9847 -1.92251e-06 57.0266 0.463186 57.7804 1.21288C58.1674 1.59596 58.4744 2.05137 58.6837 2.55292C58.893 3.05447 59.0005 3.59224 59 4.13526V45.8222C59 46.9587 58.5343 47.9949 57.7804 48.7446C57.3953 49.1295 56.9373 49.4348 56.433 49.6429C55.9287 49.8511 55.388 49.958 54.842 49.9575H34.0278C33.9845 49.9575 33.9413 49.9527 33.8981 49.9527V49.9527ZM27.8003 3.65775C27.7107 3.47268 27.5703 3.31661 27.3953 3.2076C27.2202 3.09859 27.0177 3.04109 26.8112 3.04176H4.15804C3.86035 3.04176 3.58667 3.16591 3.38501 3.36169C3.18335 3.56225 3.05851 3.83443 3.05851 4.13526V45.8222C3.05851 46.1182 3.18335 46.3904 3.38021 46.591C3.58187 46.7915 3.85555 46.9109 4.15324 46.9109H24.9963C26.3311 46.9109 27.1617 47.0494 27.7955 47.3693V3.65775H27.8003V3.65775ZM47.0396 3.11339H38.4979V16.1543L42.0942 13.8527V13.8574C42.5935 13.5423 43.2513 13.528 43.7699 13.8765L47.0396 16.0827V3.11339V3.11339Z" fill="white"/>
</g>
<defs>
<clipPath id="clip0">
<rect width="59" height="55" fill="white"/>
</clipPath>
</defs>
</svg>
